#define clock_width 14
#define clock_height 14
static unsigned char clock_bits[] = {
   0x00, 0x00, 0xe0, 0x01, 0x18, 0x06, 0x14, 0x08, 0x24, 0x08, 0x22, 0x10,
   0x42, 0x10, 0xc2, 0x10, 0x42, 0x10, 0x24, 0x08, 0x04, 0x08, 0x18, 0x06,
   0xe0, 0x01, 0x00, 0x00 };
